<svg width="832" height="233" viewBox="0 0 832 233" fill="none" xmlns="http://www.w3.org/2000/svg">
<g clip-path="url(#clip0)">
<g clip-path="url(#clip1)">
<g opacity="0.8">
<path opacity="0.8" d="M273.693 221.077H15.5216V54.0952C15.5216 52.6985 16.0765 51.3591 17.064 50.3715C18.0516 49.3839 19.3911 48.8291 20.7877 48.8291H268.427C269.824 48.8291 271.163 49.3839 272.151 50.3715C273.138 51.3591 273.693 52.6985 273.693 54.0952V221.077Z" fill="url(#paint0_linear)"/>
</g>
<path d="M24.3306 51.8621H264.867C266.264 51.8621 267.603 52.4169 268.591 53.4045C269.578 54.392 270.133 55.7315 270.133 57.1281V221.077H19.0779V57.1315C19.077 55.7366 19.6296 54.3983 20.6144 53.4103C21.5992 52.4224 22.9357 51.8656 24.3306 51.8621Z" fill="white"/>
<path d="M262.051 61.7075H27.1603V215.774H262.051V61.7075Z" fill="#F5F5F5"/>
<path opacity="0.8" d="M261.954 69.1868H28.0602V207.798H261.954V69.1868Z" fill="#E0E0E0"/>
<path d="M261.954 61.821H28.0602V69.1869H261.954V61.821Z" fill="#F5F5F5"/>
<path d="M33.0763 67.1804C34.063 67.1804 34.8628 66.3805 34.8628 65.3939C34.8628 64.4073 34.063 63.6074 33.0763 63.6074C32.0897 63.6074 31.2899 64.4073 31.2899 65.3939C31.2899 66.3805 32.0897 67.1804 33.0763 67.1804Z" fill="#FF5252"/>
<path d="M37.9858 67.1804C38.9724 67.1804 39.7723 66.3805 39.7723 65.3939C39.7723 64.4073 38.9724 63.6074 37.9858 63.6074C36.9991 63.6074 36.1993 64.4073 36.1993 65.3939C36.1993 66.3805 36.9991 67.1804 37.9858 67.1804Z" fill="#FFFF00"/>
<path d="M42.8986 67.1804C43.8852 67.1804 44.6851 66.3805 44.6851 65.3939C44.6851 64.4073 43.8852 63.6074 42.8986 63.6074C41.912 63.6074 41.1121 64.4073 41.1121 65.3939C41.1121 66.3805 41.912 67.1804 42.8986 67.1804Z" fill="#69F0AE"/>
<g opacity="0.8">
<path opacity="0.8" d="M280.915 232.149C266.544 233.239 19.7378 232.815 11.1154 232.149C-0.189967 226.699 0.0166755 205.555 0.0166755 205.555L113.204 204.799L113.584 211.235H162.019L163.912 205.568H289.345C289.345 205.568 291.838 224.953 280.915 232.149Z" fill="url(#paint1_linear)"/>
</g>
<path d="M287.508 207.258H164.522C164.995 207.806 165.302 208.479 165.404 209.196C165.506 209.913 165.399 210.644 165.097 211.303C164.795 211.961 164.31 212.519 163.7 212.909C163.089 213.299 162.38 213.506 161.655 213.504H114.701C113.976 213.506 113.267 213.299 112.656 212.909C112.046 212.519 111.561 211.961 111.259 211.303C110.957 210.644 110.85 209.913 110.952 209.196C111.054 208.479 111.36 207.806 111.834 207.258H1.70315C1.70315 207.258 1.51317 225.619 12.6819 230.365C21.1977 230.932 264.987 231.312 279.182 230.365C289.984 224.103 287.508 207.258 287.508 207.258Z" fill="#F5F5F5"/>
<path d="M27.257 212.748C28.0927 212.748 28.7701 212.07 28.7701 211.234C28.7701 210.399 28.0927 209.721 27.257 209.721C26.4213 209.721 25.7438 210.399 25.7438 211.234C25.7438 212.07 26.4213 212.748 27.257 212.748Z" fill="#E0E0E0"/>
<path d="M31.7998 212.748C32.6355 212.748 33.313 212.07 33.313 211.234C33.313 210.399 32.6355 209.721 31.7998 209.721C30.9641 209.721 30.2866 210.399 30.2866 211.234C30.2866 212.07 30.9641 212.748 31.7998 212.748Z" fill="#E0E0E0"/>
<path d="M36.3393 212.748C37.175 212.748 37.8525 212.07 37.8525 211.234C37.8525 210.399 37.175 209.721 36.3393 209.721C35.5036 209.721 34.8261 210.399 34.8261 211.234C34.8261 212.07 35.5036 212.748 36.3393 212.748Z" fill="#E0E0E0"/>
<path d="M139.944 125.88H150.673C163.004 125.88 174.831 130.779 183.55 139.498C192.27 148.218 197.168 160.044 197.168 172.375V206.175H93.4496V172.375C93.4496 160.044 98.3482 148.218 107.068 139.498C115.787 130.779 127.613 125.88 139.944 125.88Z" fill="#00BAFC"/>
<path d="M145.411 107.803C171.59 107.803 192.812 86.5802 192.812 60.4012C192.812 34.2221 171.59 12.9998 145.411 12.9998C119.231 12.9998 98.0091 34.2221 98.0091 60.4012C98.0091 86.5802 119.231 107.803 145.411 107.803Z" fill="#333333"/>
<path opacity="0.1" d="M138.431 112.075H152.14C154.703 112.075 157.162 113.094 158.974 114.906C160.787 116.719 161.805 119.178 161.805 121.741V131.16C161.805 135.079 160.248 138.838 157.477 141.61C154.705 144.381 150.946 145.938 147.027 145.938H143.531C139.611 145.938 135.852 144.381 133.081 141.61C130.309 138.838 128.752 135.079 128.752 131.16V121.754C128.752 119.191 129.771 116.732 131.583 114.92C133.396 113.107 135.854 112.089 138.418 112.089L138.431 112.075Z" fill="black"/>
<path d="M128.752 111.109H161.822V130.207C161.822 134.126 160.265 137.885 157.494 140.657C154.722 143.428 150.963 144.985 147.044 144.985H143.531C139.611 144.985 135.852 143.428 133.081 140.657C130.309 137.885 128.752 134.126 128.752 130.207V111.109Z" fill="#FDB797"/>
<path opacity="0.1" d="M128.812 115.878C139.47 119.86 151.202 119.892 161.882 115.968V111.909H128.812V115.878Z" fill="black"/>
<path d="M145.411 118.091C171.59 118.091 192.812 96.869 192.812 70.69C192.812 44.5109 171.59 23.2886 145.411 23.2886C119.231 23.2886 98.0091 44.5109 98.0091 70.69C98.0091 96.869 119.231 118.091 145.411 118.091Z" fill="#FDB797"/>
<path opacity="0.1" d="M100.092 53.9119H190.482C190.482 53.9119 182.766 17.4126 148.593 19.7224C114.421 22.0321 100.092 53.9119 100.092 53.9119Z" fill="black"/>
<path d="M100.092 52.6853H190.482C190.482 52.6853 182.766 16.186 148.593 18.5124C114.421 20.8388 100.092 52.6853 100.092 52.6853Z" fill="#333333"/>
<path d="M98.989 76.9393C101.424 76.9393 103.398 73.2371 103.398 68.6702C103.398 64.1033 101.424 60.4011 98.989 60.4011C96.5537 60.4011 94.5795 64.1033 94.5795 68.6702C94.5795 73.2371 96.5537 76.9393 98.989 76.9393Z" fill="#FDB797"/>
<path d="M191.585 76.9393C194.021 76.9393 195.995 73.2371 195.995 68.6702C195.995 64.1033 194.021 60.4011 191.585 60.4011C189.15 60.4011 187.176 64.1033 187.176 68.6702C187.176 73.2371 189.15 76.9393 191.585 76.9393Z" fill="#FDB797"/>
<path d="M107.108 28.5013C108.191 24.9617 110.161 21.5788 113.201 19.469C115.51 17.8658 118.274 17.0959 120.923 16.156C124.844 14.7668 128.606 12.967 132.149 10.7866C136.168 8.31023 139.944 5.32723 144.371 3.69074C151.986 0.874388 160.469 2.39755 168.331 4.41733C170.268 4.91394 172.228 5.45388 173.934 6.50043C175.91 7.7103 177.427 9.53009 178.907 11.3132L191.385 26.3649C192.529 27.7414 193.678 29.1346 194.485 30.7344C195.237 32.284 195.718 33.9515 195.905 35.6639C196.238 38.4236 195.978 41.3499 194.572 43.753C192.462 47.3559 188.112 49.1657 183.943 49.3323C179.773 49.499 175.68 48.2891 171.674 47.1159C158.756 43.333 145.677 39.8067 132.279 38.2369C125.629 37.4164 118.919 37.1988 112.231 37.587C110.131 37.7236 107.358 38.6869 106.082 36.5471C104.978 34.6906 106.538 30.3611 107.108 28.5013Z" fill="#333333"/>
<path opacity="0.05" d="M113.754 169.372V206.175" stroke="black" stroke-width="4" stroke-miterlimit="10"/>
<path opacity="0.05" d="M177.694 169.372V206.175" stroke="black" stroke-width="4" stroke-miterlimit="10"/>
<g opacity="0.8">
<path opacity="0.8" d="M300 66.7604H240.52L220.445 83.4985V66.7604H207.064V0.611084H300V66.7604Z" fill="url(#paint2_linear)"/>
</g>
<path d="M298.74 1.39771H208.324V64.654H298.74V1.39771Z" fill="white"/>
<path d="M290.148 10.6965H218.506V12.5763H290.148V10.6965Z" fill="#E0E0E0"/>
<path d="M267.76 19.1624H218.506V21.0421H267.76V19.1624Z" fill="#E0E0E0"/>
<path d="M277.613 27.6248H218.506V29.5045H277.613V27.6248Z" fill="#E0E0E0"/>
<path d="M265.97 36.0906H218.506V37.9704H265.97V36.0906Z" fill="#00BAFC"/>
<path d="M290.148 44.5527H218.506V46.4325H290.148V44.5527Z" fill="#00BAFC"/>
<path d="M290.148 53.0186H218.506V54.8983H290.148V53.0186Z" fill="#E0E0E0"/>
<path d="M223.792 63.4241V80.1556L242.193 61.751L223.792 63.4241Z" fill="white"/>
</g>
<g clip-path="url(#clip2)">
<path d="M347.154 101.552C347.154 103.231 346.855 104.641 346.256 105.78C345.663 106.913 344.791 107.743 343.639 108.271L347.076 112.108H343.199L340.582 108.905H340.357C338.17 108.905 336.49 108.271 335.318 107.001C334.146 105.731 333.561 103.909 333.561 101.532C333.561 99.1559 334.146 97.3428 335.318 96.0928C336.497 94.8363 338.183 94.208 340.377 94.208C342.571 94.208 344.247 94.8395 345.406 96.1025C346.572 97.3656 347.154 99.182 347.154 101.552ZM336.734 101.552C336.734 103.147 337.037 104.348 337.643 105.155C338.248 105.963 339.153 106.366 340.357 106.366C342.773 106.366 343.98 104.761 343.98 101.552C343.98 98.3356 342.779 96.7275 340.377 96.7275C339.173 96.7275 338.264 97.1344 337.652 97.9482C337.04 98.7555 336.734 99.9567 336.734 101.552ZM352.252 103.231C352.252 104.312 352.428 105.129 352.779 105.683C353.137 106.236 353.717 106.513 354.518 106.513C355.312 106.513 355.882 106.239 356.227 105.692C356.578 105.139 356.754 104.319 356.754 103.231C356.754 102.151 356.578 101.34 356.227 100.8C355.875 100.259 355.299 99.9893 354.498 99.9893C353.704 99.9893 353.131 100.259 352.779 100.8C352.428 101.334 352.252 102.144 352.252 103.231ZM359.801 103.231C359.801 105.009 359.332 106.399 358.395 107.401C357.457 108.404 356.152 108.905 354.479 108.905C353.43 108.905 352.506 108.677 351.705 108.222C350.904 107.759 350.289 107.099 349.859 106.239C349.43 105.38 349.215 104.377 349.215 103.231C349.215 101.448 349.68 100.061 350.611 99.0713C351.542 98.0817 352.851 97.5869 354.537 97.5869C355.585 97.5869 356.51 97.8148 357.311 98.2705C358.111 98.7262 358.727 99.3805 359.156 100.233C359.586 101.086 359.801 102.086 359.801 103.231ZM364.664 94.4326L364.801 94.6475C364.475 95.93 363.902 97.4893 363.082 99.3252H360.943C361.393 97.3981 361.718 95.7673 361.92 94.4326H364.664ZM369.576 108.71H366.598V93.5146H369.576V108.71ZM375.689 108.71H372.711V93.5146H375.689V108.71ZM385.758 108.71L385.182 107.226H385.104C384.602 107.857 384.085 108.297 383.551 108.544C383.023 108.785 382.333 108.905 381.48 108.905C380.432 108.905 379.605 108.606 379 108.007C378.401 107.408 378.102 106.555 378.102 105.448C378.102 104.289 378.505 103.437 379.312 102.89C380.126 102.336 381.35 102.03 382.984 101.972L384.879 101.913V101.435C384.879 100.328 384.312 99.7744 383.18 99.7744C382.307 99.7744 381.282 100.038 380.104 100.565L379.117 98.5537C380.374 97.8962 381.767 97.5674 383.297 97.5674C384.762 97.5674 385.885 97.8864 386.666 98.5244C387.447 99.1624 387.838 100.132 387.838 101.435V108.71H385.758ZM384.879 103.651L383.727 103.69C382.861 103.716 382.216 103.873 381.793 104.159C381.37 104.446 381.158 104.882 381.158 105.468C381.158 106.308 381.64 106.728 382.604 106.728C383.294 106.728 383.844 106.529 384.254 106.132C384.671 105.735 384.879 105.207 384.879 104.55V103.651ZM396.988 97.5869C398.277 97.5869 399.286 98.0915 400.016 99.1006C400.745 100.103 401.109 101.48 401.109 103.231C401.109 105.035 400.732 106.431 399.977 107.421C399.228 108.41 398.206 108.905 396.91 108.905C395.628 108.905 394.622 108.44 393.893 107.509H393.688L393.189 108.71H390.914V93.5146H393.893V97.0498C393.893 97.499 393.854 98.2184 393.775 99.208H393.893C394.589 98.1273 395.621 97.5869 396.988 97.5869ZM396.031 99.9697C395.296 99.9697 394.758 100.198 394.42 100.653C394.081 101.103 393.906 101.848 393.893 102.89V103.212C393.893 104.384 394.065 105.224 394.41 105.731C394.762 106.239 395.315 106.493 396.07 106.493C396.682 106.493 397.167 106.213 397.525 105.653C397.89 105.087 398.072 104.267 398.072 103.192C398.072 102.118 397.89 101.314 397.525 100.78C397.161 100.24 396.663 99.9697 396.031 99.9697ZM402.604 104.569V102.128H407.848V104.569H402.604ZM414.537 106.571C415.292 106.571 415.846 106.356 416.197 105.927C416.549 105.491 416.741 104.732 416.773 103.651V103.29C416.773 102.118 416.591 101.278 416.227 100.771C415.868 100.263 415.289 100.009 414.488 100.009C413.089 100.009 412.389 101.109 412.389 103.31C412.389 104.403 412.561 105.22 412.906 105.761C413.258 106.301 413.801 106.571 414.537 106.571ZM413.473 108.905C412.184 108.905 411.174 108.41 410.445 107.421C409.716 106.425 409.352 105.041 409.352 103.271C409.352 101.487 409.723 100.093 410.465 99.0908C411.214 98.0882 412.236 97.5869 413.531 97.5869C414.221 97.5869 414.824 97.7171 415.338 97.9775C415.852 98.238 416.305 98.6416 416.695 99.1885H416.773L417.037 97.792H419.557V113.515H416.568V108.935C416.568 108.537 416.611 107.991 416.695 107.294H416.568C416.249 107.821 415.826 108.222 415.299 108.495C414.771 108.769 414.163 108.905 413.473 108.905ZM430.406 108.71L430.006 107.313H429.85C429.531 107.821 429.078 108.215 428.492 108.495C427.906 108.769 427.239 108.905 426.49 108.905C425.208 108.905 424.241 108.563 423.59 107.88C422.939 107.19 422.613 106.2 422.613 104.911V97.792H425.592V104.169C425.592 104.957 425.732 105.549 426.012 105.946C426.292 106.337 426.738 106.532 427.35 106.532C428.183 106.532 428.785 106.256 429.156 105.702C429.527 105.142 429.713 104.218 429.713 102.929V97.792H432.691V108.71H430.406ZM438.414 108.71L434.254 97.792H437.369L439.479 104.013C439.713 104.8 439.859 105.546 439.918 106.249H439.977C440.009 105.624 440.156 104.879 440.416 104.013L442.516 97.792H445.631L441.471 108.71H438.414ZM449.801 108.71L445.641 97.792H448.756L450.865 104.013C451.1 104.8 451.246 105.546 451.305 106.249H451.363C451.396 105.624 451.542 104.879 451.803 104.013L453.902 97.792H457.018L452.857 108.71H449.801ZM465.523 108.71L464.947 107.226H464.869C464.368 107.857 463.85 108.297 463.316 108.544C462.789 108.785 462.099 108.905 461.246 108.905C460.198 108.905 459.371 108.606 458.766 108.007C458.167 107.408 457.867 106.555 457.867 105.448C457.867 104.289 458.271 103.437 459.078 102.89C459.892 102.336 461.116 102.03 462.75 101.972L464.645 101.913V101.435C464.645 100.328 464.078 99.7744 462.945 99.7744C462.073 99.7744 461.048 100.038 459.869 100.565L458.883 98.5537C460.139 97.8962 461.533 97.5674 463.062 97.5674C464.527 97.5674 465.65 97.8864 466.432 98.5244C467.213 99.1624 467.604 100.132 467.604 101.435V108.71H465.523ZM464.645 103.651L463.492 103.69C462.626 103.716 461.982 103.873 461.559 104.159C461.135 104.446 460.924 104.882 460.924 105.468C460.924 106.308 461.406 106.728 462.369 106.728C463.059 106.728 463.609 106.529 464.02 106.132C464.436 105.735 464.645 105.207 464.645 104.55V103.651ZM475.279 106.532C475.8 106.532 476.425 106.418 477.154 106.19V108.407C476.412 108.739 475.501 108.905 474.42 108.905C473.229 108.905 472.359 108.606 471.812 108.007C471.272 107.401 471.002 106.496 471.002 105.292V100.028H469.576V98.7686L471.217 97.7725L472.076 95.4678H473.98V97.792H477.037V100.028H473.98V105.292C473.98 105.715 474.098 106.028 474.332 106.229C474.573 106.431 474.889 106.532 475.279 106.532ZM482.35 108.71H479.371V93.5146H482.35V108.71ZM492.418 108.71L491.842 107.226H491.764C491.262 107.857 490.745 108.297 490.211 108.544C489.684 108.785 488.993 108.905 488.141 108.905C487.092 108.905 486.266 108.606 485.66 108.007C485.061 107.408 484.762 106.555 484.762 105.448C484.762 104.289 485.165 103.437 485.973 102.89C486.786 102.336 488.01 102.03 489.645 101.972L491.539 101.913V101.435C491.539 100.328 490.973 99.7744 489.84 99.7744C488.967 99.7744 487.942 100.038 486.764 100.565L485.777 98.5537C487.034 97.8962 488.427 97.5674 489.957 97.5674C491.422 97.5674 492.545 97.8864 493.326 98.5244C494.107 99.1624 494.498 100.132 494.498 101.435V108.71H492.418ZM491.539 103.651L490.387 103.69C489.521 103.716 488.876 103.873 488.453 104.159C488.03 104.446 487.818 104.882 487.818 105.468C487.818 106.308 488.3 106.728 489.264 106.728C489.954 106.728 490.504 106.529 490.914 106.132C491.331 105.735 491.539 105.207 491.539 104.55V103.651ZM503.648 97.5869C504.938 97.5869 505.947 98.0915 506.676 99.1006C507.405 100.103 507.77 101.48 507.77 103.231C507.77 105.035 507.392 106.431 506.637 107.421C505.888 108.41 504.866 108.905 503.57 108.905C502.288 108.905 501.282 108.44 500.553 107.509H500.348L499.85 108.71H497.574V93.5146H500.553V97.0498C500.553 97.499 500.514 98.2184 500.436 99.208H500.553C501.249 98.1273 502.281 97.5869 503.648 97.5869ZM502.691 99.9697C501.956 99.9697 501.419 100.198 501.08 100.653C500.742 101.103 500.566 101.848 500.553 102.89V103.212C500.553 104.384 500.725 105.224 501.07 105.731C501.422 106.239 501.975 106.493 502.73 106.493C503.342 106.493 503.827 106.213 504.186 105.653C504.55 105.087 504.732 104.267 504.732 103.192C504.732 102.118 504.55 101.314 504.186 100.78C503.821 100.24 503.323 99.9697 502.691 99.9697ZM521.5 97.5869C522.789 97.5869 523.798 98.0915 524.527 99.1006C525.257 100.103 525.621 101.48 525.621 103.231C525.621 105.035 525.243 106.431 524.488 107.421C523.74 108.41 522.717 108.905 521.422 108.905C520.139 108.905 519.133 108.44 518.404 107.509H518.199L517.701 108.71H515.426V93.5146H518.404V97.0498C518.404 97.499 518.365 98.2184 518.287 99.208H518.404C519.101 98.1273 520.133 97.5869 521.5 97.5869ZM520.543 99.9697C519.807 99.9697 519.27 100.198 518.932 100.653C518.593 101.103 518.417 101.848 518.404 102.89V103.212C518.404 104.384 518.577 105.224 518.922 105.731C519.273 106.239 519.827 106.493 520.582 106.493C521.194 106.493 521.679 106.213 522.037 105.653C522.402 105.087 522.584 104.267 522.584 103.192C522.584 102.118 522.402 101.314 522.037 100.78C521.673 100.24 521.174 99.9697 520.543 99.9697ZM530.455 103.231C530.455 104.312 530.631 105.129 530.982 105.683C531.34 106.236 531.92 106.513 532.721 106.513C533.515 106.513 534.085 106.239 534.43 105.692C534.781 105.139 534.957 104.319 534.957 103.231C534.957 102.151 534.781 101.34 534.43 100.8C534.078 100.259 533.502 99.9893 532.701 99.9893C531.907 99.9893 531.334 100.259 530.982 100.8C530.631 101.334 530.455 102.144 530.455 103.231ZM538.004 103.231C538.004 105.009 537.535 106.399 536.598 107.401C535.66 108.404 534.355 108.905 532.682 108.905C531.633 108.905 530.709 108.677 529.908 108.222C529.107 107.759 528.492 107.099 528.062 106.239C527.633 105.38 527.418 104.377 527.418 103.231C527.418 101.448 527.883 100.061 528.814 99.0713C529.745 98.0817 531.054 97.5869 532.74 97.5869C533.788 97.5869 534.713 97.8148 535.514 98.2705C536.314 98.7262 536.93 99.3805 537.359 100.233C537.789 101.086 538.004 102.086 538.004 103.231ZM546.559 97.5869C546.962 97.5869 547.298 97.6162 547.564 97.6748L547.34 100.468C547.099 100.403 546.806 100.37 546.461 100.37C545.51 100.37 544.768 100.614 544.234 101.103C543.707 101.591 543.443 102.274 543.443 103.153V108.71H540.465V97.792H542.721L543.16 99.6279H543.307C543.645 99.016 544.101 98.5244 544.674 98.1533C545.253 97.7757 545.882 97.5869 546.559 97.5869ZM556.48 108.71L555.904 107.226H555.826C555.325 107.857 554.807 108.297 554.273 108.544C553.746 108.785 553.056 108.905 552.203 108.905C551.155 108.905 550.328 108.606 549.723 108.007C549.124 107.408 548.824 106.555 548.824 105.448C548.824 104.289 549.228 103.437 550.035 102.89C550.849 102.336 552.073 102.03 553.707 101.972L555.602 101.913V101.435C555.602 100.328 555.035 99.7744 553.902 99.7744C553.03 99.7744 552.005 100.038 550.826 100.565L549.84 98.5537C551.096 97.8962 552.49 97.5674 554.02 97.5674C555.484 97.5674 556.607 97.8864 557.389 98.5244C558.17 99.1624 558.561 100.132 558.561 101.435V108.71H556.48ZM555.602 103.651L554.449 103.69C553.583 103.716 552.939 103.873 552.516 104.159C552.092 104.446 551.881 104.882 551.881 105.468C551.881 106.308 552.363 106.728 553.326 106.728C554.016 106.728 554.566 106.529 554.977 106.132C555.393 105.735 555.602 105.207 555.602 104.55V103.651ZM571.412 108.71H568.434V102.333C568.434 101.545 568.3 100.956 568.033 100.565C567.773 100.168 567.359 99.9697 566.793 99.9697C566.031 99.9697 565.478 100.25 565.133 100.81C564.788 101.369 564.615 102.291 564.615 103.573V108.71H561.637V97.792H563.912L564.312 99.1885H564.479C564.771 98.6872 565.195 98.2965 565.748 98.0166C566.301 97.7301 566.936 97.5869 567.652 97.5869C569.286 97.5869 570.393 98.1208 570.973 99.1885H571.236C571.529 98.6807 571.959 98.2868 572.525 98.0068C573.098 97.7269 573.743 97.5869 574.459 97.5869C575.696 97.5869 576.63 97.9059 577.262 98.5439C577.9 99.1755 578.219 100.191 578.219 101.591V108.71H575.23V102.333C575.23 101.545 575.097 100.956 574.83 100.565C574.57 100.168 574.156 99.9697 573.59 99.9697C572.861 99.9697 572.314 100.23 571.949 100.751C571.591 101.272 571.412 102.099 571.412 103.231V108.71ZM581.158 94.9697C581.158 93.9997 581.699 93.5146 582.779 93.5146C583.86 93.5146 584.4 93.9997 584.4 94.9697C584.4 95.432 584.264 95.7933 583.99 96.0537C583.723 96.3076 583.32 96.4346 582.779 96.4346C581.699 96.4346 581.158 95.9463 581.158 94.9697ZM584.264 108.71H581.285V97.792H584.264V108.71ZM594.996 108.71H586.373V106.952L591.432 100.067H586.676V97.792H594.82V99.7256L589.898 106.435H594.996V108.71Z" fill="black"/>
<path d="M232.992 139.71H231.477L225.234 130.124H225.172C225.255 131.249 225.297 132.28 225.297 133.218V139.71H224.07V128.288H225.57L231.797 137.835H231.859C231.849 137.694 231.826 137.244 231.789 136.483C231.753 135.718 231.74 135.171 231.75 134.843V128.288H232.992V139.71ZM237.156 131.147V136.702C237.156 137.4 237.315 137.921 237.633 138.265C237.951 138.608 238.448 138.78 239.125 138.78C240.021 138.78 240.674 138.535 241.086 138.046C241.503 137.556 241.711 136.757 241.711 135.647V131.147H243.008V139.71H241.938L241.75 138.562H241.68C241.414 138.983 241.044 139.306 240.57 139.53C240.102 139.754 239.565 139.866 238.961 139.866C237.919 139.866 237.138 139.619 236.617 139.124C236.102 138.629 235.844 137.838 235.844 136.749V131.147H237.156ZM247.062 139.71H245.766V127.554H247.062V139.71ZM251.109 139.71H249.812V127.554H251.109V139.71ZM259.125 139.71L258.867 138.491H258.805C258.378 139.028 257.951 139.392 257.523 139.585C257.102 139.772 256.573 139.866 255.938 139.866C255.089 139.866 254.422 139.647 253.938 139.21C253.458 138.772 253.219 138.15 253.219 137.343C253.219 135.614 254.602 134.707 257.367 134.624L258.82 134.577V134.046C258.82 133.374 258.674 132.879 258.383 132.562C258.096 132.239 257.635 132.077 257 132.077C256.286 132.077 255.479 132.296 254.578 132.733L254.18 131.741C254.602 131.512 255.062 131.332 255.562 131.202C256.068 131.072 256.573 131.007 257.078 131.007C258.099 131.007 258.854 131.233 259.344 131.687C259.839 132.14 260.086 132.866 260.086 133.866V139.71H259.125ZM256.195 138.796C257.003 138.796 257.635 138.575 258.094 138.132C258.557 137.689 258.789 137.069 258.789 136.272V135.499L257.492 135.554C256.461 135.59 255.716 135.752 255.258 136.038C254.805 136.319 254.578 136.759 254.578 137.358C254.578 137.827 254.719 138.184 255 138.429C255.286 138.674 255.685 138.796 256.195 138.796ZM273.68 139.71V134.14C273.68 133.457 273.534 132.947 273.242 132.608C272.951 132.265 272.497 132.093 271.883 132.093C271.076 132.093 270.479 132.325 270.094 132.788C269.708 133.252 269.516 133.965 269.516 134.929V139.71H268.219V134.14C268.219 133.457 268.073 132.947 267.781 132.608C267.49 132.265 267.034 132.093 266.414 132.093C265.602 132.093 265.005 132.338 264.625 132.827C264.25 133.312 264.062 134.108 264.062 135.218V139.71H262.766V131.147H263.82L264.031 132.319H264.094C264.339 131.903 264.682 131.577 265.125 131.343C265.573 131.108 266.073 130.991 266.625 130.991C267.964 130.991 268.839 131.476 269.25 132.444H269.312C269.568 131.996 269.938 131.642 270.422 131.382C270.906 131.121 271.458 130.991 272.078 130.991C273.047 130.991 273.771 131.241 274.25 131.741C274.734 132.236 274.977 133.03 274.977 134.124V139.71H273.68ZM283.109 139.71H281.812V127.554H283.109V139.71ZM291.125 139.71L290.867 138.491H290.805C290.378 139.028 289.951 139.392 289.523 139.585C289.102 139.772 288.573 139.866 287.938 139.866C287.089 139.866 286.422 139.647 285.938 139.21C285.458 138.772 285.219 138.15 285.219 137.343C285.219 135.614 286.602 134.707 289.367 134.624L290.82 134.577V134.046C290.82 133.374 290.674 132.879 290.383 132.562C290.096 132.239 289.635 132.077 289 132.077C288.286 132.077 287.479 132.296 286.578 132.733L286.18 131.741C286.602 131.512 287.062 131.332 287.562 131.202C288.068 131.072 288.573 131.007 289.078 131.007C290.099 131.007 290.854 131.233 291.344 131.687C291.839 132.14 292.086 132.866 292.086 133.866V139.71H291.125ZM288.195 138.796C289.003 138.796 289.635 138.575 290.094 138.132C290.557 137.689 290.789 137.069 290.789 136.272V135.499L289.492 135.554C288.461 135.59 287.716 135.752 287.258 136.038C286.805 136.319 286.578 136.759 286.578 137.358C286.578 137.827 286.719 138.184 287 138.429C287.286 138.674 287.685 138.796 288.195 138.796ZM302.156 135.421C302.156 136.817 301.805 137.908 301.102 138.694C300.398 139.476 299.427 139.866 298.188 139.866C297.422 139.866 296.742 139.687 296.148 139.327C295.555 138.968 295.096 138.452 294.773 137.78C294.451 137.108 294.289 136.322 294.289 135.421C294.289 134.025 294.638 132.939 295.336 132.163C296.034 131.382 297.003 130.991 298.242 130.991C299.44 130.991 300.391 131.39 301.094 132.187C301.802 132.983 302.156 134.062 302.156 135.421ZM295.633 135.421C295.633 136.515 295.852 137.348 296.289 137.921C296.727 138.494 297.37 138.78 298.219 138.78C299.068 138.78 299.711 138.496 300.148 137.929C300.591 137.356 300.812 136.52 300.812 135.421C300.812 134.332 300.591 133.507 300.148 132.944C299.711 132.377 299.062 132.093 298.203 132.093C297.354 132.093 296.714 132.371 296.281 132.929C295.849 133.486 295.633 134.317 295.633 135.421ZM308.344 130.991C308.724 130.991 309.065 131.022 309.367 131.085L309.188 132.288C308.833 132.21 308.521 132.171 308.25 132.171C307.557 132.171 306.964 132.452 306.469 133.015C305.979 133.577 305.734 134.278 305.734 135.116V139.71H304.438V131.147H305.508L305.656 132.733H305.719C306.036 132.176 306.419 131.746 306.867 131.444C307.315 131.142 307.807 130.991 308.344 130.991ZM314.586 139.866C313.32 139.866 312.32 139.481 311.586 138.71C310.857 137.939 310.492 136.869 310.492 135.499C310.492 134.119 310.831 133.022 311.508 132.21C312.19 131.397 313.104 130.991 314.25 130.991C315.323 130.991 316.172 131.345 316.797 132.054C317.422 132.757 317.734 133.687 317.734 134.843V135.663H311.836C311.862 136.668 312.115 137.431 312.594 137.952C313.078 138.473 313.758 138.733 314.633 138.733C315.555 138.733 316.466 138.541 317.367 138.155V139.312C316.909 139.509 316.474 139.65 316.062 139.733C315.656 139.822 315.164 139.866 314.586 139.866ZM314.234 132.077C313.547 132.077 312.997 132.301 312.586 132.749C312.18 133.197 311.94 133.817 311.867 134.608H316.344C316.344 133.791 316.161 133.166 315.797 132.733C315.432 132.296 314.911 132.077 314.234 132.077ZM323.57 139.866C322.305 139.866 321.305 139.481 320.57 138.71C319.841 137.939 319.477 136.869 319.477 135.499C319.477 134.119 319.815 133.022 320.492 132.21C321.174 131.397 322.089 130.991 323.234 130.991C324.307 130.991 325.156 131.345 325.781 132.054C326.406 132.757 326.719 133.687 326.719 134.843V135.663H320.82C320.846 136.668 321.099 137.431 321.578 137.952C322.062 138.473 322.742 138.733 323.617 138.733C324.539 138.733 325.451 138.541 326.352 138.155V139.312C325.893 139.509 325.458 139.65 325.047 139.733C324.641 139.822 324.148 139.866 323.57 139.866ZM323.219 132.077C322.531 132.077 321.982 132.301 321.57 132.749C321.164 133.197 320.924 133.817 320.852 134.608H325.328C325.328 133.791 325.146 133.166 324.781 132.733C324.417 132.296 323.896 132.077 323.219 132.077ZM331.703 138.796C331.932 138.796 332.154 138.78 332.367 138.749C332.581 138.713 332.75 138.676 332.875 138.64V139.632C332.734 139.7 332.526 139.754 332.25 139.796C331.979 139.843 331.734 139.866 331.516 139.866C329.859 139.866 329.031 138.994 329.031 137.249V132.155H327.805V131.53L329.031 130.991L329.578 129.163H330.328V131.147H332.812V132.155H330.328V137.194C330.328 137.71 330.451 138.106 330.695 138.382C330.94 138.658 331.276 138.796 331.703 138.796ZM344.609 139.71V134.171C344.609 133.473 344.451 132.952 344.133 132.608C343.815 132.265 343.318 132.093 342.641 132.093C341.745 132.093 341.089 132.335 340.672 132.819C340.255 133.304 340.047 134.103 340.047 135.218V139.71H338.75V131.147H339.805L340.016 132.319H340.078C340.344 131.897 340.716 131.572 341.195 131.343C341.674 131.108 342.208 130.991 342.797 130.991C343.828 130.991 344.604 131.241 345.125 131.741C345.646 132.236 345.906 133.03 345.906 134.124V139.71H344.609ZM352.195 139.866C350.93 139.866 349.93 139.481 349.195 138.71C348.466 137.939 348.102 136.869 348.102 135.499C348.102 134.119 348.44 133.022 349.117 132.21C349.799 131.397 350.714 130.991 351.859 130.991C352.932 130.991 353.781 131.345 354.406 132.054C355.031 132.757 355.344 133.687 355.344 134.843V135.663H349.445C349.471 136.668 349.724 137.431 350.203 137.952C350.688 138.473 351.367 138.733 352.242 138.733C353.164 138.733 354.076 138.541 354.977 138.155V139.312C354.518 139.509 354.083 139.65 353.672 139.733C353.266 139.822 352.773 139.866 352.195 139.866ZM351.844 132.077C351.156 132.077 350.607 132.301 350.195 132.749C349.789 133.197 349.549 133.817 349.477 134.608H353.953C353.953 133.791 353.771 133.166 353.406 132.733C353.042 132.296 352.521 132.077 351.844 132.077ZM360.984 139.866C359.745 139.866 358.784 139.486 358.102 138.726C357.424 137.96 357.086 136.879 357.086 135.483C357.086 134.051 357.43 132.944 358.117 132.163C358.81 131.382 359.794 130.991 361.07 130.991C361.482 130.991 361.893 131.035 362.305 131.124C362.716 131.213 363.039 131.317 363.273 131.437L362.875 132.538C362.589 132.424 362.276 132.33 361.938 132.257C361.599 132.179 361.299 132.14 361.039 132.14C359.299 132.14 358.43 133.249 358.43 135.468C358.43 136.52 358.641 137.327 359.062 137.89C359.49 138.452 360.12 138.733 360.953 138.733C361.667 138.733 362.398 138.58 363.148 138.272V139.421C362.576 139.718 361.854 139.866 360.984 139.866ZM372.109 138.796C372.339 138.796 372.56 138.78 372.773 138.749C372.987 138.713 373.156 138.676 373.281 138.64V139.632C373.141 139.7 372.932 139.754 372.656 139.796C372.385 139.843 372.141 139.866 371.922 139.866C370.266 139.866 369.438 138.994 369.438 137.249V132.155H368.211V131.53L369.438 130.991L369.984 129.163H370.734V131.147H373.219V132.155H370.734V137.194C370.734 137.71 370.857 138.106 371.102 138.382C371.346 138.658 371.682 138.796 372.109 138.796ZM376.219 131.147V136.702C376.219 137.4 376.378 137.921 376.695 138.265C377.013 138.608 377.51 138.78 378.188 138.78C379.083 138.78 379.737 138.535 380.148 138.046C380.565 137.556 380.773 136.757 380.773 135.647V131.147H382.07V139.71H381L380.812 138.562H380.742C380.477 138.983 380.107 139.306 379.633 139.53C379.164 139.754 378.628 139.866 378.023 139.866C376.982 139.866 376.201 139.619 375.68 139.124C375.164 138.629 374.906 137.838 374.906 136.749V131.147H376.219ZM388.734 130.991C389.115 130.991 389.456 131.022 389.758 131.085L389.578 132.288C389.224 132.21 388.911 132.171 388.641 132.171C387.948 132.171 387.354 132.452 386.859 133.015C386.37 133.577 386.125 134.278 386.125 135.116V139.71H384.828V131.147H385.898L386.047 132.733H386.109C386.427 132.176 386.81 131.746 387.258 131.444C387.706 131.142 388.198 130.991 388.734 130.991ZM395.344 139.866C394.786 139.866 394.276 139.765 393.812 139.562C393.354 139.353 392.969 139.035 392.656 138.608H392.562C392.625 139.108 392.656 139.582 392.656 140.03V143.554H391.359V131.147H392.414L392.594 132.319H392.656C392.99 131.851 393.378 131.512 393.82 131.304C394.263 131.095 394.771 130.991 395.344 130.991C396.479 130.991 397.354 131.379 397.969 132.155C398.589 132.931 398.898 134.02 398.898 135.421C398.898 136.827 398.583 137.921 397.953 138.702C397.328 139.478 396.458 139.866 395.344 139.866ZM395.156 132.093C394.281 132.093 393.648 132.335 393.258 132.819C392.867 133.304 392.667 134.075 392.656 135.132V135.421C392.656 136.624 392.857 137.486 393.258 138.007C393.659 138.522 394.302 138.78 395.188 138.78C395.927 138.78 396.505 138.481 396.922 137.882C397.344 137.283 397.555 136.457 397.555 135.405C397.555 134.338 397.344 133.52 396.922 132.952C396.505 132.379 395.917 132.093 395.156 132.093ZM402.469 139.71H401.172V131.147H402.469V139.71ZM401.062 128.827C401.062 128.53 401.135 128.314 401.281 128.179C401.427 128.038 401.609 127.968 401.828 127.968C402.036 127.968 402.216 128.038 402.367 128.179C402.518 128.319 402.594 128.535 402.594 128.827C402.594 129.119 402.518 129.338 402.367 129.483C402.216 129.624 402.036 129.694 401.828 129.694C401.609 129.694 401.427 129.624 401.281 129.483C401.135 129.338 401.062 129.119 401.062 128.827ZM410.742 137.374C410.742 138.171 410.445 138.785 409.852 139.218C409.258 139.65 408.424 139.866 407.352 139.866C406.216 139.866 405.331 139.687 404.695 139.327V138.124C405.107 138.332 405.547 138.496 406.016 138.616C406.49 138.736 406.945 138.796 407.383 138.796C408.06 138.796 408.581 138.689 408.945 138.476C409.31 138.257 409.492 137.926 409.492 137.483C409.492 137.15 409.346 136.866 409.055 136.632C408.768 136.392 408.206 136.111 407.367 135.788C406.57 135.491 406.003 135.233 405.664 135.015C405.331 134.791 405.081 134.538 404.914 134.257C404.753 133.976 404.672 133.64 404.672 133.249C404.672 132.551 404.956 132.002 405.523 131.601C406.091 131.194 406.87 130.991 407.859 130.991C408.781 130.991 409.682 131.179 410.562 131.554L410.102 132.608C409.242 132.254 408.464 132.077 407.766 132.077C407.151 132.077 406.688 132.174 406.375 132.366C406.062 132.559 405.906 132.825 405.906 133.163C405.906 133.392 405.964 133.588 406.078 133.749C406.198 133.91 406.388 134.064 406.648 134.21C406.909 134.356 407.409 134.567 408.148 134.843C409.164 135.213 409.849 135.585 410.203 135.96C410.562 136.335 410.742 136.806 410.742 137.374ZM420.633 139.866C419.367 139.866 418.367 139.481 417.633 138.71C416.904 137.939 416.539 136.869 416.539 135.499C416.539 134.119 416.878 133.022 417.555 132.21C418.237 131.397 419.151 130.991 420.297 130.991C421.37 130.991 422.219 131.345 422.844 132.054C423.469 132.757 423.781 133.687 423.781 134.843V135.663H417.883C417.909 136.668 418.161 137.431 418.641 137.952C419.125 138.473 419.805 138.733 420.68 138.733C421.602 138.733 422.513 138.541 423.414 138.155V139.312C422.956 139.509 422.521 139.65 422.109 139.733C421.703 139.822 421.211 139.866 420.633 139.866ZM420.281 132.077C419.594 132.077 419.044 132.301 418.633 132.749C418.227 133.197 417.987 133.817 417.914 134.608H422.391C422.391 133.791 422.208 133.166 421.844 132.733C421.479 132.296 420.958 132.077 420.281 132.077ZM428.766 138.796C428.995 138.796 429.216 138.78 429.43 138.749C429.643 138.713 429.812 138.676 429.938 138.64V139.632C429.797 139.7 429.589 139.754 429.312 139.796C429.042 139.843 428.797 139.866 428.578 139.866C426.922 139.866 426.094 138.994 426.094 137.249V132.155H424.867V131.53L426.094 130.991L426.641 129.163H427.391V131.147H429.875V132.155H427.391V137.194C427.391 137.71 427.513 138.106 427.758 138.382C428.003 138.658 428.339 138.796 428.766 138.796ZM437.031 131.147V136.702C437.031 137.4 437.19 137.921 437.508 138.265C437.826 138.608 438.323 138.78 439 138.78C439.896 138.78 440.549 138.535 440.961 138.046C441.378 137.556 441.586 136.757 441.586 135.647V131.147H442.883V139.71H441.812L441.625 138.562H441.555C441.289 138.983 440.919 139.306 440.445 139.53C439.977 139.754 439.44 139.866 438.836 139.866C437.794 139.866 437.013 139.619 436.492 139.124C435.977 138.629 435.719 137.838 435.719 136.749V131.147H437.031ZM446.938 139.71H445.641V127.554H446.938V139.71ZM452.453 138.796C452.682 138.796 452.904 138.78 453.117 138.749C453.331 138.713 453.5 138.676 453.625 138.64V139.632C453.484 139.7 453.276 139.754 453 139.796C452.729 139.843 452.484 139.866 452.266 139.866C450.609 139.866 449.781 138.994 449.781 137.249V132.155H448.555V131.53L449.781 130.991L450.328 129.163H451.078V131.147H453.562V132.155H451.078V137.194C451.078 137.71 451.201 138.106 451.445 138.382C451.69 138.658 452.026 138.796 452.453 138.796ZM459.25 130.991C459.63 130.991 459.971 131.022 460.273 131.085L460.094 132.288C459.74 132.21 459.427 132.171 459.156 132.171C458.464 132.171 457.87 132.452 457.375 133.015C456.885 133.577 456.641 134.278 456.641 135.116V139.71H455.344V131.147H456.414L456.562 132.733H456.625C456.943 132.176 457.326 131.746 457.773 131.444C458.221 131.142 458.714 130.991 459.25 130.991ZM463.172 139.71H461.875V131.147H463.172V139.71ZM461.766 128.827C461.766 128.53 461.839 128.314 461.984 128.179C462.13 128.038 462.312 127.968 462.531 127.968C462.74 127.968 462.919 128.038 463.07 128.179C463.221 128.319 463.297 128.535 463.297 128.827C463.297 129.119 463.221 129.338 463.07 129.483C462.919 129.624 462.74 129.694 462.531 129.694C462.312 129.694 462.13 129.624 461.984 129.483C461.839 129.338 461.766 129.119 461.766 128.827ZM469.344 139.866C468.104 139.866 467.143 139.486 466.461 138.726C465.784 137.96 465.445 136.879 465.445 135.483C465.445 134.051 465.789 132.944 466.477 132.163C467.169 131.382 468.154 130.991 469.43 130.991C469.841 130.991 470.253 131.035 470.664 131.124C471.076 131.213 471.398 131.317 471.633 131.437L471.234 132.538C470.948 132.424 470.635 132.33 470.297 132.257C469.958 132.179 469.659 132.14 469.398 132.14C467.659 132.14 466.789 133.249 466.789 135.468C466.789 136.52 467 137.327 467.422 137.89C467.849 138.452 468.479 138.733 469.312 138.733C470.026 138.733 470.758 138.58 471.508 138.272V139.421C470.935 139.718 470.214 139.866 469.344 139.866ZM477.164 139.866C475.898 139.866 474.898 139.481 474.164 138.71C473.435 137.939 473.07 136.869 473.07 135.499C473.07 134.119 473.409 133.022 474.086 132.21C474.768 131.397 475.682 130.991 476.828 130.991C477.901 130.991 478.75 131.345 479.375 132.054C480 132.757 480.312 133.687 480.312 134.843V135.663H474.414C474.44 136.668 474.693 137.431 475.172 137.952C475.656 138.473 476.336 138.733 477.211 138.733C478.133 138.733 479.044 138.541 479.945 138.155V139.312C479.487 139.509 479.052 139.65 478.641 139.733C478.234 139.822 477.742 139.866 477.164 139.866ZM476.812 132.077C476.125 132.077 475.576 132.301 475.164 132.749C474.758 133.197 474.518 133.817 474.445 134.608H478.922C478.922 133.791 478.74 133.166 478.375 132.733C478.01 132.296 477.49 132.077 476.812 132.077ZM488.055 137.374C488.055 138.171 487.758 138.785 487.164 139.218C486.57 139.65 485.737 139.866 484.664 139.866C483.529 139.866 482.643 139.687 482.008 139.327V138.124C482.419 138.332 482.859 138.496 483.328 138.616C483.802 138.736 484.258 138.796 484.695 138.796C485.372 138.796 485.893 138.689 486.258 138.476C486.622 138.257 486.805 137.926 486.805 137.483C486.805 137.15 486.659 136.866 486.367 136.632C486.081 136.392 485.518 136.111 484.68 135.788C483.883 135.491 483.315 135.233 482.977 135.015C482.643 134.791 482.393 134.538 482.227 134.257C482.065 133.976 481.984 133.64 481.984 133.249C481.984 132.551 482.268 132.002 482.836 131.601C483.404 131.194 484.182 130.991 485.172 130.991C486.094 130.991 486.995 131.179 487.875 131.554L487.414 132.608C486.555 132.254 485.776 132.077 485.078 132.077C484.464 132.077 484 132.174 483.688 132.366C483.375 132.559 483.219 132.825 483.219 133.163C483.219 133.392 483.276 133.588 483.391 133.749C483.51 133.91 483.701 134.064 483.961 134.21C484.221 134.356 484.721 134.567 485.461 134.843C486.477 135.213 487.161 135.585 487.516 135.96C487.875 136.335 488.055 136.806 488.055 137.374ZM489.984 138.882C489.984 138.533 490.062 138.27 490.219 138.093C490.38 137.91 490.609 137.819 490.906 137.819C491.208 137.819 491.443 137.91 491.609 138.093C491.781 138.27 491.867 138.533 491.867 138.882C491.867 139.22 491.781 139.481 491.609 139.663C491.438 139.845 491.203 139.937 490.906 139.937C490.641 139.937 490.419 139.856 490.242 139.694C490.07 139.528 489.984 139.257 489.984 138.882ZM507.906 133.89C507.906 135.775 507.393 137.218 506.367 138.218C505.346 139.213 503.875 139.71 501.953 139.71H498.789V128.288H502.289C504.065 128.288 505.445 128.78 506.43 129.765C507.414 130.749 507.906 132.124 507.906 133.89ZM506.5 133.937C506.5 132.447 506.125 131.325 505.375 130.569C504.63 129.814 503.521 129.437 502.047 129.437H500.117V138.562H501.734C503.318 138.562 504.508 138.174 505.305 137.397C506.102 136.616 506.5 135.463 506.5 133.937ZM511.484 131.147V136.702C511.484 137.4 511.643 137.921 511.961 138.265C512.279 138.608 512.776 138.78 513.453 138.78C514.349 138.78 515.003 138.535 515.414 138.046C515.831 137.556 516.039 136.757 516.039 135.647V131.147H517.336V139.71H516.266L516.078 138.562H516.008C515.742 138.983 515.372 139.306 514.898 139.53C514.43 139.754 513.893 139.866 513.289 139.866C512.247 139.866 511.466 139.619 510.945 139.124C510.43 138.629 510.172 137.838 510.172 136.749V131.147H511.484ZM521.391 139.71H520.094V131.147H521.391V139.71ZM519.984 128.827C519.984 128.53 520.057 128.314 520.203 128.179C520.349 128.038 520.531 127.968 520.75 127.968C520.958 127.968 521.138 128.038 521.289 128.179C521.44 128.319 521.516 128.535 521.516 128.827C521.516 129.119 521.44 129.338 521.289 129.483C521.138 129.624 520.958 129.694 520.75 129.694C520.531 129.694 520.349 129.624 520.203 129.483C520.057 129.338 519.984 129.119 519.984 128.827ZM529.664 137.374C529.664 138.171 529.367 138.785 528.773 139.218C528.18 139.65 527.346 139.866 526.273 139.866C525.138 139.866 524.253 139.687 523.617 139.327V138.124C524.029 138.332 524.469 138.496 524.938 138.616C525.411 138.736 525.867 138.796 526.305 138.796C526.982 138.796 527.503 138.689 527.867 138.476C528.232 138.257 528.414 137.926 528.414 137.483C528.414 137.15 528.268 136.866 527.977 136.632C527.69 136.392 527.128 136.111 526.289 135.788C525.492 135.491 524.924 135.233 524.586 135.015C524.253 134.791 524.003 134.538 523.836 134.257C523.674 133.976 523.594 133.64 523.594 133.249C523.594 132.551 523.878 132.002 524.445 131.601C525.013 131.194 525.792 130.991 526.781 130.991C527.703 130.991 528.604 131.179 529.484 131.554L529.023 132.608C528.164 132.254 527.385 132.077 526.688 132.077C526.073 132.077 525.609 132.174 525.297 132.366C524.984 132.559 524.828 132.825 524.828 133.163C524.828 133.392 524.885 133.588 525 133.749C525.12 133.91 525.31 134.064 525.57 134.21C525.831 134.356 526.331 134.567 527.07 134.843C528.086 135.213 528.771 135.585 529.125 135.96C529.484 136.335 529.664 136.806 529.664 137.374ZM541.461 137.374C541.461 138.171 541.164 138.785 540.57 139.218C539.977 139.65 539.143 139.866 538.07 139.866C536.935 139.866 536.049 139.687 535.414 139.327V138.124C535.826 138.332 536.266 138.496 536.734 138.616C537.208 138.736 537.664 138.796 538.102 138.796C538.779 138.796 539.299 138.689 539.664 138.476C540.029 138.257 540.211 137.926 540.211 137.483C540.211 137.15 540.065 136.866 539.773 136.632C539.487 136.392 538.924 136.111 538.086 135.788C537.289 135.491 536.721 135.233 536.383 135.015C536.049 134.791 535.799 134.538 535.633 134.257C535.471 133.976 535.391 133.64 535.391 133.249C535.391 132.551 535.674 132.002 536.242 131.601C536.81 131.194 537.589 130.991 538.578 130.991C539.5 130.991 540.401 131.179 541.281 131.554L540.82 132.608C539.961 132.254 539.182 132.077 538.484 132.077C537.87 132.077 537.406 132.174 537.094 132.366C536.781 132.559 536.625 132.825 536.625 133.163C536.625 133.392 536.682 133.588 536.797 133.749C536.917 133.91 537.107 134.064 537.367 134.21C537.628 134.356 538.128 134.567 538.867 134.843C539.883 135.213 540.568 135.585 540.922 135.96C541.281 136.335 541.461 136.806 541.461 137.374ZM544.875 139.71H543.578V131.147H544.875V139.71ZM543.469 128.827C543.469 128.53 543.542 128.314 543.688 128.179C543.833 128.038 544.016 127.968 544.234 127.968C544.443 127.968 544.622 128.038 544.773 128.179C544.924 128.319 545 128.535 545 128.827C545 129.119 544.924 129.338 544.773 129.483C544.622 129.624 544.443 129.694 544.234 129.694C544.016 129.694 543.833 129.624 543.688 129.483C543.542 129.338 543.469 129.119 543.469 128.827ZM550.391 138.796C550.62 138.796 550.841 138.78 551.055 138.749C551.268 138.713 551.438 138.676 551.562 138.64V139.632C551.422 139.7 551.214 139.754 550.938 139.796C550.667 139.843 550.422 139.866 550.203 139.866C548.547 139.866 547.719 138.994 547.719 137.249V132.155H546.492V131.53L547.719 130.991L548.266 129.163H549.016V131.147H551.5V132.155H549.016V137.194C549.016 137.71 549.138 138.106 549.383 138.382C549.628 138.658 549.964 138.796 550.391 138.796ZM562.703 139.71L562.445 138.491H562.383C561.956 139.028 561.529 139.392 561.102 139.585C560.68 139.772 560.151 139.866 559.516 139.866C558.667 139.866 558 139.647 557.516 139.21C557.036 138.772 556.797 138.15 556.797 137.343C556.797 135.614 558.18 134.707 560.945 134.624L562.398 134.577V134.046C562.398 133.374 562.253 132.879 561.961 132.562C561.674 132.239 561.214 132.077 560.578 132.077C559.865 132.077 559.057 132.296 558.156 132.733L557.758 131.741C558.18 131.512 558.641 131.332 559.141 131.202C559.646 131.072 560.151 131.007 560.656 131.007C561.677 131.007 562.432 131.233 562.922 131.687C563.417 132.14 563.664 132.866 563.664 133.866V139.71H562.703ZM559.773 138.796C560.581 138.796 561.214 138.575 561.672 138.132C562.135 137.689 562.367 137.069 562.367 136.272V135.499L561.07 135.554C560.039 135.59 559.294 135.752 558.836 136.038C558.383 136.319 558.156 136.759 558.156 137.358C558.156 137.827 558.297 138.184 558.578 138.429C558.865 138.674 559.263 138.796 559.773 138.796ZM577.258 139.71V134.14C577.258 133.457 577.112 132.947 576.82 132.608C576.529 132.265 576.076 132.093 575.461 132.093C574.654 132.093 574.057 132.325 573.672 132.788C573.286 133.252 573.094 133.965 573.094 134.929V139.71H571.797V134.14C571.797 133.457 571.651 132.947 571.359 132.608C571.068 132.265 570.612 132.093 569.992 132.093C569.18 132.093 568.583 132.338 568.203 132.827C567.828 133.312 567.641 134.108 567.641 135.218V139.71H566.344V131.147H567.398L567.609 132.319H567.672C567.917 131.903 568.26 131.577 568.703 131.343C569.151 131.108 569.651 130.991 570.203 130.991C571.542 130.991 572.417 131.476 572.828 132.444H572.891C573.146 131.996 573.516 131.642 574 131.382C574.484 131.121 575.036 130.991 575.656 130.991C576.625 130.991 577.349 131.241 577.828 131.741C578.312 132.236 578.555 133.03 578.555 134.124V139.71H577.258ZM584.852 139.866C583.586 139.866 582.586 139.481 581.852 138.71C581.122 137.939 580.758 136.869 580.758 135.499C580.758 134.119 581.096 133.022 581.773 132.21C582.456 131.397 583.37 130.991 584.516 130.991C585.589 130.991 586.438 131.345 587.062 132.054C587.688 132.757 588 133.687 588 134.843V135.663H582.102C582.128 136.668 582.38 137.431 582.859 137.952C583.344 138.473 584.023 138.733 584.898 138.733C585.82 138.733 586.732 138.541 587.633 138.155V139.312C587.174 139.509 586.74 139.65 586.328 139.733C585.922 139.822 585.43 139.866 584.852 139.866ZM584.5 132.077C583.812 132.077 583.263 132.301 582.852 132.749C582.445 133.197 582.206 133.817 582.133 134.608H586.609C586.609 133.791 586.427 133.166 586.062 132.733C585.698 132.296 585.177 132.077 584.5 132.077ZM592.984 138.796C593.214 138.796 593.435 138.78 593.648 138.749C593.862 138.713 594.031 138.676 594.156 138.64V139.632C594.016 139.7 593.807 139.754 593.531 139.796C593.26 139.843 593.016 139.866 592.797 139.866C591.141 139.866 590.312 138.994 590.312 137.249V132.155H589.086V131.53L590.312 130.991L590.859 129.163H591.609V131.147H594.094V132.155H591.609V137.194C591.609 137.71 591.732 138.106 591.977 138.382C592.221 138.658 592.557 138.796 592.984 138.796ZM603.266 138.78C604.13 138.78 604.76 138.549 605.156 138.085C605.552 137.621 605.763 136.84 605.789 135.741V135.452C605.789 134.254 605.586 133.392 605.18 132.866C604.773 132.34 604.13 132.077 603.25 132.077C602.49 132.077 601.906 132.374 601.5 132.968C601.099 133.556 600.898 134.39 600.898 135.468C600.898 136.546 601.096 137.369 601.492 137.937C601.893 138.499 602.484 138.78 603.266 138.78ZM603.07 139.866C601.966 139.866 601.104 139.478 600.484 138.702C599.865 137.926 599.555 136.843 599.555 135.452C599.555 134.051 599.867 132.957 600.492 132.171C601.117 131.384 601.987 130.991 603.102 130.991C604.273 130.991 605.174 131.434 605.805 132.319H605.875L606.062 131.147H607.086V143.554H605.789V139.89C605.789 139.369 605.818 138.926 605.875 138.562H605.773C605.174 139.431 604.273 139.866 603.07 139.866ZM611.062 131.147V136.702C611.062 137.4 611.221 137.921 611.539 138.265C611.857 138.608 612.354 138.78 613.031 138.78C613.927 138.78 614.581 138.535 614.992 138.046C615.409 137.556 615.617 136.757 615.617 135.647V131.147H616.914V139.71H615.844L615.656 138.562H615.586C615.32 138.983 614.951 139.306 614.477 139.53C614.008 139.754 613.471 139.866 612.867 139.866C611.826 139.866 611.044 139.619 610.523 139.124C610.008 138.629 609.75 137.838 609.75 136.749V131.147H611.062ZM624.938 139.71L624.68 138.491H624.617C624.19 139.028 623.763 139.392 623.336 139.585C622.914 139.772 622.385 139.866 621.75 139.866C620.901 139.866 620.234 139.647 619.75 139.21C619.271 138.772 619.031 138.15 619.031 137.343C619.031 135.614 620.414 134.707 623.18 134.624L624.633 134.577V134.046C624.633 133.374 624.487 132.879 624.195 132.562C623.909 132.239 623.448 132.077 622.812 132.077C622.099 132.077 621.292 132.296 620.391 132.733L619.992 131.741C620.414 131.512 620.875 131.332 621.375 131.202C621.88 131.072 622.385 131.007 622.891 131.007C623.911 131.007 624.667 131.233 625.156 131.687C625.651 132.14 625.898 132.866 625.898 133.866V139.71H624.938ZM622.008 138.796C622.815 138.796 623.448 138.575 623.906 138.132C624.37 137.689 624.602 137.069 624.602 136.272V135.499L623.305 135.554C622.273 135.59 621.529 135.752 621.07 136.038C620.617 136.319 620.391 136.759 620.391 137.358C620.391 137.827 620.531 138.184 620.812 138.429C621.099 138.674 621.497 138.796 622.008 138.796ZM639.492 139.71V134.14C639.492 133.457 639.346 132.947 639.055 132.608C638.763 132.265 638.31 132.093 637.695 132.093C636.888 132.093 636.292 132.325 635.906 132.788C635.521 133.252 635.328 133.965 635.328 134.929V139.71H634.031V134.14C634.031 133.457 633.885 132.947 633.594 132.608C633.302 132.265 632.846 132.093 632.227 132.093C631.414 132.093 630.818 132.338 630.438 132.827C630.062 133.312 629.875 134.108 629.875 135.218V139.71H628.578V131.147H629.633L629.844 132.319H629.906C630.151 131.903 630.495 131.577 630.938 131.343C631.385 131.108 631.885 130.991 632.438 130.991C633.776 130.991 634.651 131.476 635.062 132.444H635.125C635.38 131.996 635.75 131.642 636.234 131.382C636.719 131.121 637.271 130.991 637.891 130.991C638.859 130.991 639.583 131.241 640.062 131.741C640.547 132.236 640.789 133.03 640.789 134.124V139.71H639.492ZM652.891 139.71L652.633 138.491H652.57C652.143 139.028 651.716 139.392 651.289 139.585C650.867 139.772 650.339 139.866 649.703 139.866C648.854 139.866 648.188 139.647 647.703 139.21C647.224 138.772 646.984 138.15 646.984 137.343C646.984 135.614 648.367 134.707 651.133 134.624L652.586 134.577V134.046C652.586 133.374 652.44 132.879 652.148 132.562C651.862 132.239 651.401 132.077 650.766 132.077C650.052 132.077 649.245 132.296 648.344 132.733L647.945 131.741C648.367 131.512 648.828 131.332 649.328 131.202C649.833 131.072 650.339 131.007 650.844 131.007C651.865 131.007 652.62 131.233 653.109 131.687C653.604 132.14 653.852 132.866 653.852 133.866V139.71H652.891ZM649.961 138.796C650.768 138.796 651.401 138.575 651.859 138.132C652.323 137.689 652.555 137.069 652.555 136.272V135.499L651.258 135.554C650.227 135.59 649.482 135.752 649.023 136.038C648.57 136.319 648.344 136.759 648.344 137.358C648.344 137.827 648.484 138.184 648.766 138.429C649.052 138.674 649.451 138.796 649.961 138.796ZM660.438 130.991C660.818 130.991 661.159 131.022 661.461 131.085L661.281 132.288C660.927 132.21 660.615 132.171 660.344 132.171C659.651 132.171 659.057 132.452 658.562 133.015C658.073 133.577 657.828 134.278 657.828 135.116V139.71H656.531V131.147H657.602L657.75 132.733H657.812C658.13 132.176 658.513 131.746 658.961 131.444C659.409 131.142 659.901 130.991 660.438 130.991ZM666.484 139.866C665.245 139.866 664.284 139.486 663.602 138.726C662.924 137.96 662.586 136.879 662.586 135.483C662.586 134.051 662.93 132.944 663.617 132.163C664.31 131.382 665.294 130.991 666.57 130.991C666.982 130.991 667.393 131.035 667.805 131.124C668.216 131.213 668.539 131.317 668.773 131.437L668.375 132.538C668.089 132.424 667.776 132.33 667.438 132.257C667.099 132.179 666.799 132.14 666.539 132.14C664.799 132.14 663.93 133.249 663.93 135.468C663.93 136.52 664.141 137.327 664.562 137.89C664.99 138.452 665.62 138.733 666.453 138.733C667.167 138.733 667.898 138.58 668.648 138.272V139.421C668.076 139.718 667.354 139.866 666.484 139.866ZM671.906 131.147V136.702C671.906 137.4 672.065 137.921 672.383 138.265C672.701 138.608 673.198 138.78 673.875 138.78C674.771 138.78 675.424 138.535 675.836 138.046C676.253 137.556 676.461 136.757 676.461 135.647V131.147H677.758V139.71H676.688L676.5 138.562H676.43C676.164 138.983 675.794 139.306 675.32 139.53C674.852 139.754 674.315 139.866 673.711 139.866C672.669 139.866 671.888 139.619 671.367 139.124C670.852 138.629 670.594 137.838 670.594 136.749V131.147H671.906ZM680.328 138.882C680.328 138.533 680.406 138.27 680.562 138.093C680.724 137.91 680.953 137.819 681.25 137.819C681.552 137.819 681.786 137.91 681.953 138.093C682.125 138.27 682.211 138.533 682.211 138.882C682.211 139.22 682.125 139.481 681.953 139.663C681.781 139.845 681.547 139.937 681.25 139.937C680.984 139.937 680.763 139.856 680.586 139.694C680.414 139.528 680.328 139.257 680.328 138.882ZM698.055 139.71H696.539L690.297 130.124H690.234C690.318 131.249 690.359 132.28 690.359 133.218V139.71H689.133V128.288H690.633L696.859 137.835H696.922C696.911 137.694 696.888 137.244 696.852 136.483C696.815 135.718 696.802 135.171 696.812 134.843V128.288H698.055V139.71ZM706.266 139.71L706.008 138.491H705.945C705.518 139.028 705.091 139.392 704.664 139.585C704.242 139.772 703.714 139.866 703.078 139.866C702.229 139.866 701.562 139.647 701.078 139.21C700.599 138.772 700.359 138.15 700.359 137.343C700.359 135.614 701.742 134.707 704.508 134.624L705.961 134.577V134.046C705.961 133.374 705.815 132.879 705.523 132.562C705.237 132.239 704.776 132.077 704.141 132.077C703.427 132.077 702.62 132.296 701.719 132.733L701.32 131.741C701.742 131.512 702.203 131.332 702.703 131.202C703.208 131.072 703.714 131.007 704.219 131.007C705.24 131.007 705.995 131.233 706.484 131.687C706.979 132.14 707.227 132.866 707.227 133.866V139.71H706.266ZM703.336 138.796C704.143 138.796 704.776 138.575 705.234 138.132C705.698 137.689 705.93 137.069 705.93 136.272V135.499L704.633 135.554C703.602 135.59 702.857 135.752 702.398 136.038C701.945 136.319 701.719 136.759 701.719 137.358C701.719 137.827 701.859 138.184 702.141 138.429C702.427 138.674 702.826 138.796 703.336 138.796ZM720.82 139.71V134.14C720.82 133.457 720.674 132.947 720.383 132.608C720.091 132.265 719.638 132.093 719.023 132.093C718.216 132.093 717.62 132.325 717.234 132.788C716.849 133.252 716.656 133.965 716.656 134.929V139.71H715.359V134.14C715.359 133.457 715.214 132.947 714.922 132.608C714.63 132.265 714.174 132.093 713.555 132.093C712.742 132.093 712.146 132.338 711.766 132.827C711.391 133.312 711.203 134.108 711.203 135.218V139.71H709.906V131.147H710.961L711.172 132.319H711.234C711.479 131.903 711.823 131.577 712.266 131.343C712.714 131.108 713.214 130.991 713.766 130.991C715.104 130.991 715.979 131.476 716.391 132.444H716.453C716.708 131.996 717.078 131.642 717.562 131.382C718.047 131.121 718.599 130.991 719.219 130.991C720.188 130.991 720.911 131.241 721.391 131.741C721.875 132.236 722.117 133.03 722.117 134.124V139.71H720.82ZM732.812 132.155H730.633V139.71H729.336V132.155H727.805V131.569L729.336 131.101V130.624C729.336 128.52 730.255 127.468 732.094 127.468C732.547 127.468 733.078 127.559 733.688 127.741L733.352 128.78C732.852 128.619 732.424 128.538 732.07 128.538C731.581 128.538 731.219 128.702 730.984 129.03C730.75 129.353 730.633 129.874 730.633 130.593V131.147H732.812V132.155ZM739.641 139.71L739.383 138.491H739.32C738.893 139.028 738.466 139.392 738.039 139.585C737.617 139.772 737.089 139.866 736.453 139.866C735.604 139.866 734.938 139.647 734.453 139.21C733.974 138.772 733.734 138.15 733.734 137.343C733.734 135.614 735.117 134.707 737.883 134.624L739.336 134.577V134.046C739.336 133.374 739.19 132.879 738.898 132.562C738.612 132.239 738.151 132.077 737.516 132.077C736.802 132.077 735.995 132.296 735.094 132.733L734.695 131.741C735.117 131.512 735.578 131.332 736.078 131.202C736.583 131.072 737.089 131.007 737.594 131.007C738.615 131.007 739.37 131.233 739.859 131.687C740.354 132.14 740.602 132.866 740.602 133.866V139.71H739.641ZM736.711 138.796C737.518 138.796 738.151 138.575 738.609 138.132C739.073 137.689 739.305 137.069 739.305 136.272V135.499L738.008 135.554C736.977 135.59 736.232 135.752 735.773 136.038C735.32 136.319 735.094 136.759 735.094 137.358C735.094 137.827 735.234 138.184 735.516 138.429C735.802 138.674 736.201 138.796 736.711 138.796ZM746.703 139.866C745.464 139.866 744.503 139.486 743.82 138.726C743.143 137.96 742.805 136.879 742.805 135.483C742.805 134.051 743.148 132.944 743.836 132.163C744.529 131.382 745.513 130.991 746.789 130.991C747.201 130.991 747.612 131.035 748.023 131.124C748.435 131.213 748.758 131.317 748.992 131.437L748.594 132.538C748.307 132.424 747.995 132.33 747.656 132.257C747.318 132.179 747.018 132.14 746.758 132.14C745.018 132.14 744.148 133.249 744.148 135.468C744.148 136.52 744.359 137.327 744.781 137.89C745.208 138.452 745.839 138.733 746.672 138.733C747.385 138.733 748.117 138.58 748.867 138.272V139.421C748.294 139.718 747.573 139.866 746.703 139.866ZM752.203 139.71H750.906V131.147H752.203V139.71ZM750.797 128.827C750.797 128.53 750.87 128.314 751.016 128.179C751.161 128.038 751.344 127.968 751.562 127.968C751.771 127.968 751.951 128.038 752.102 128.179C752.253 128.319 752.328 128.535 752.328 128.827C752.328 129.119 752.253 129.338 752.102 129.483C751.951 129.624 751.771 129.694 751.562 129.694C751.344 129.694 751.161 129.624 751.016 129.483C750.87 129.338 750.797 129.119 750.797 128.827ZM756.25 139.71H754.953V127.554H756.25V139.71ZM760.297 139.71H759V131.147H760.297V139.71ZM758.891 128.827C758.891 128.53 758.964 128.314 759.109 128.179C759.255 128.038 759.438 127.968 759.656 127.968C759.865 127.968 760.044 128.038 760.195 128.179C760.346 128.319 760.422 128.535 760.422 128.827C760.422 129.119 760.346 129.338 760.195 129.483C760.044 129.624 759.865 129.694 759.656 129.694C759.438 129.694 759.255 129.624 759.109 129.483C758.964 129.338 758.891 129.119 758.891 128.827ZM768.57 137.374C768.57 138.171 768.273 138.785 767.68 139.218C767.086 139.65 766.253 139.866 765.18 139.866C764.044 139.866 763.159 139.687 762.523 139.327V138.124C762.935 138.332 763.375 138.496 763.844 138.616C764.318 138.736 764.773 138.796 765.211 138.796C765.888 138.796 766.409 138.689 766.773 138.476C767.138 138.257 767.32 137.926 767.32 137.483C767.32 137.15 767.174 136.866 766.883 136.632C766.596 136.392 766.034 136.111 765.195 135.788C764.398 135.491 763.831 135.233 763.492 135.015C763.159 134.791 762.909 134.538 762.742 134.257C762.581 133.976 762.5 133.64 762.5 133.249C762.5 132.551 762.784 132.002 763.352 131.601C763.919 131.194 764.698 130.991 765.688 130.991C766.609 130.991 767.51 131.179 768.391 131.554L767.93 132.608C767.07 132.254 766.292 132.077 765.594 132.077C764.979 132.077 764.516 132.174 764.203 132.366C763.891 132.559 763.734 132.825 763.734 133.163C763.734 133.392 763.792 133.588 763.906 133.749C764.026 133.91 764.216 134.064 764.477 134.21C764.737 134.356 765.237 134.567 765.977 134.843C766.992 135.213 767.677 135.585 768.031 135.96C768.391 136.335 768.57 136.806 768.57 137.374ZM771.984 139.71H770.688V131.147H771.984V139.71ZM770.578 128.827C770.578 128.53 770.651 128.314 770.797 128.179C770.943 128.038 771.125 127.968 771.344 127.968C771.552 127.968 771.732 128.038 771.883 128.179C772.034 128.319 772.109 128.535 772.109 128.827C772.109 129.119 772.034 129.338 771.883 129.483C771.732 129.624 771.552 129.694 771.344 129.694C771.125 129.694 770.943 129.624 770.797 129.483C770.651 129.338 770.578 129.119 770.578 128.827ZM780.258 137.374C780.258 138.171 779.961 138.785 779.367 139.218C778.773 139.65 777.94 139.866 776.867 139.866C775.732 139.866 774.846 139.687 774.211 139.327V138.124C774.622 138.332 775.062 138.496 775.531 138.616C776.005 138.736 776.461 138.796 776.898 138.796C777.576 138.796 778.096 138.689 778.461 138.476C778.826 138.257 779.008 137.926 779.008 137.483C779.008 137.15 778.862 136.866 778.57 136.632C778.284 136.392 777.721 136.111 776.883 135.788C776.086 135.491 775.518 135.233 775.18 135.015C774.846 134.791 774.596 134.538 774.43 134.257C774.268 133.976 774.188 133.64 774.188 133.249C774.188 132.551 774.471 132.002 775.039 131.601C775.607 131.194 776.385 130.991 777.375 130.991C778.297 130.991 779.198 131.179 780.078 131.554L779.617 132.608C778.758 132.254 777.979 132.077 777.281 132.077C776.667 132.077 776.203 132.174 775.891 132.366C775.578 132.559 775.422 132.825 775.422 133.163C775.422 133.392 775.479 133.588 775.594 133.749C775.714 133.91 775.904 134.064 776.164 134.21C776.424 134.356 776.924 134.567 777.664 134.843C778.68 135.213 779.365 135.585 779.719 135.96C780.078 136.335 780.258 136.806 780.258 137.374Z" fill="black"/>
</g>
</g>
<defs>
<linearGradient id="paint0_linear" x1="144.607" y1="221.077" x2="144.607" y2="48.8358" gradientUnits="userSpaceOnUse">
<stop stop-color="#808080" stop-opacity="0.25"/>
<stop offset="0.54" stop-color="#808080" stop-opacity="0.12"/>
<stop offset="1" stop-color="#808080" stop-opacity="0.1"/>
</linearGradient>
<linearGradient id="paint1_linear" x1="169221" y1="22572.9" x2="169221" y2="20217.9" gradientUnits="userSpaceOnUse">
<stop stop-color="#808080" stop-opacity="0.25"/>
<stop offset="0.54" stop-color="#808080" stop-opacity="0.12"/>
<stop offset="1" stop-color="#808080" stop-opacity="0.1"/>
</linearGradient>
<linearGradient id="paint2_linear" x1="70901.9" y1="20613.9" x2="70901.9" y2="0.611084" gradientUnits="userSpaceOnUse">
<stop stop-color="#808080" stop-opacity="0.25"/>
<stop offset="0.54" stop-color="#808080" stop-opacity="0.12"/>
<stop offset="1" stop-color="#808080" stop-opacity="0.1"/>
</linearGradient>
<clipPath id="clip0">
<rect width="832" height="232.198" fill="white" transform="translate(0 0.611084)"/>
</clipPath>
<clipPath id="clip1">
<rect width="300" height="232.198" fill="white" transform="translate(0 0.611084)"/>
</clipPath>
<clipPath id="clip2">
<rect width="500" height="58" fill="white" transform="translate(332 87.71)"/>
</clipPath>
</defs>
</svg>
